<?xml version="1.0" standalone="no"?>
<!DOCTYPE svg PUBLIC "-//W3C//DTD SVG 20010904//EN"
 "http://www.w3.org/TR/2001/REC-SVG-20010904/DTD/svg10.dtd">
<svg version="1.0" xmlns="http://www.w3.org/2000/svg"
 width="650.000000pt" height="129.000000pt" viewBox="0 0 650.000000 129.000000"
 preserveAspectRatio="xMidYMid meet">

<g transform="translate(0.000000,129.000000) scale(0.100000,-0.100000)"
fill="#000000" stroke="none">
<path d="M307 1279 c-116 -23 -226 -99 -268 -186 -31 -64 -31 -168 1 -241 40
-92 116 -140 285 -181 154 -38 162 -40 189 -67 31 -32 34 -71 6 -107 -65 -83
-285 -62 -438 41 -33 23 -63 42 -66 42 -4 0 -6 -54 -6 -121 l0 -120 37 -15
c20 -9 71 -25 112 -36 89 -23 277 -28 356 -9 122 30 221 107 256 201 29 77 23
189 -14 252 -45 78 -105 109 -310 164 -148 39 -177 58 -177 111 0 123 235 136
413 23 26 -16 52 -30 57 -30 6 0 10 47 10 114 l0 113 -75 22 c-132 39 -262 50
-368 30z"/>
<path d="M3870 770 l0 -490 90 0 90 0 0 205 0 205 193 -2 192 -3 3 -202 2
-203 90 0 90 0 -2 488 -3 487 -87 3 -88 3 0 -201 0 -200 -195 0 -195 0 0 200
0 200 -90 0 -90 0 0 -490z"/>
<path d="M5470 933 c0 -354 5 -393 54 -477 41 -71 118 -133 193 -156 78 -24
119 -25 198 -5 126 33 222 117 265 232 48 128 6 302 -96 392 -79 69 -125 86
-239 86 -102 0 -117 -4 -182 -51 l-23 -16 0 161 0 161 -85 0 -85 0 0 -327z
m438 -88 c95 -40 150 -153 122 -253 -13 -51 -72 -119 -117 -139 -133 -55 -291
75 -269 221 13 82 63 143 142 171 51 18 77 18 122 0z"/>
<path d="M6000 1249 c-66 -27 -94 -91 -66 -151 39 -81 149 -90 200 -16 36 51
9 139 -49 164 -39 16 -51 17 -85 3z"/>
<path d="M6360 1243 c-62 -20 -90 -57 -90 -117 0 -114 173 -144 217 -39 27 65
-1 126 -70 152 -30 12 -34 12 -57 4z"/>
<path d="M3190 1135 l0 -105 -45 0 -45 0 0 -80 0 -80 45 0 45 0 0 -203 c0
-241 9 -286 69 -340 52 -47 118 -61 253 -55 57 2 110 8 116 12 8 5 12 37 12
88 0 79 0 80 -22 74 -50 -14 -114 -17 -141 -7 -48 19 -57 59 -57 256 l0 175
110 0 110 0 0 80 0 80 -110 0 -110 0 0 105 0 105 -115 0 -115 0 0 -105z"/>
<path d="M1295 1041 c-32 -8 -95 -41 -132 -67 -23 -16 -23 -16 -23 20 l0 36
-120 0 -120 0 0 -510 0 -510 120 0 120 0 0 150 c0 83 1 150 3 150 1 0 26 -9
55 -20 74 -28 172 -27 237 4 67 31 136 109 166 188 21 55 24 80 24 193 -1 111
-4 138 -23 186 -32 79 -74 135 -124 160 -45 23 -135 33 -183 20z m21 -186 c52
-22 76 -83 76 -197 0 -74 -4 -96 -23 -135 -30 -57 -75 -83 -146 -83 -88 0 -83
-12 -83 201 0 184 1 189 22 200 57 31 104 35 154 14z"/>
<path d="M1958 1036 c-26 -8 -67 -25 -92 -40 -158 -92 -213 -355 -117 -551 36
-73 82 -117 161 -154 50 -23 67 -26 175 -26 108 0 125 3 175 26 79 37 125 81
160 153 63 127 62 294 0 423 -58 119 -157 174 -320 179 -59 2 -113 -2 -142
-10z m211 -182 c82 -69 82 -329 0 -398 -43 -37 -124 -37 -167 -1 -41 34 -62
102 -62 195 0 158 46 230 145 230 43 0 60 -5 84 -26z"/>
<path d="M2590 655 l0 -375 115 0 115 0 2 251 3 252 40 15 c25 10 74 15 133
15 l92 0 0 109 0 108 -47 0 c-53 0 -130 -31 -179 -73 -18 -15 -35 -27 -38 -27
-3 0 -6 23 -6 50 l0 50 -115 0 -115 0 0 -375z"/>
<path d="M4722 768 c3 -245 4 -254 28 -303 89 -181 319 -238 483 -119 52 38
101 107 117 164 5 19 10 142 10 273 l0 237 -85 0 -85 0 0 -234 c0 -225 -1
-234 -22 -266 -65 -95 -188 -90 -255 10 -22 32 -23 41 -23 261 l0 229 -86 0
-85 0 3 -252z"/>
<path d="M6304 886 c-28 -28 -34 -42 -34 -76 0 -34 6 -48 34 -76 29 -29 41
-34 81 -34 38 0 52 5 75 29 52 51 52 111 0 162 -23 24 -37 29 -75 29 -40 0
-52 -5 -81 -34z"/>
</g>
</svg>
